<?xml version="1.0" encoding="utf-8"?>
<!-- Generator: Adobe Illustrator 27.3.1, SVG Export Plug-In . SVG Version: 6.00 Build 0)  -->
<svg version="1.1" id="Base_icon" xmlns="http://www.w3.org/2000/svg" xmlns:xlink="http://www.w3.org/1999/xlink" x="0px" y="0px"
	 viewBox="0 0 400 450" style="enable-background:new 0 0 400 450;" xml:space="preserve">
<style type="text/css">
	.st0{fill-rule:evenodd;clip-rule:evenodd;fill:#FFFFF5;stroke:#0B2347;stroke-width:5;}
</style>
<path class="st0" d="M229.7,93c-9.1-2-18.5-3-28.2-3s-19.1,1-28.2,3l28.2-66L229.7,93z"/>
<path class="st0" d="M234,349l-32,75l-31.9-74.8c10.1,2.5,20.6,3.8,31.4,3.8C212.7,353,223.6,351.6,234,349z"/>
<path class="st0" d="M339.3,363.3l-70.9-28.5c17.2-10.2,32-24.2,43-40.9L339.3,363.3z"/>
<path class="st0" d="M133.8,334.2l-72.2,29l28.7-71.5C101.3,309.1,116.2,323.7,133.8,334.2z"/>
<path class="st0" d="M240.5,118.5c-12-4.5-25-6.9-38.5-6.9c-14,0-27.4,2.6-39.7,7.3c-41.4,16-70.8,56.2-70.8,103.2
	c0,15.7,3.3,30.6,9.2,44.1c11.4,26,32.5,46.8,58.7,57.8c13.2,5.5,27.6,8.5,42.7,8.5c14.5,0,28.4-2.8,41.1-7.9c0.5-0.2,1-0.4,1.5-0.6
	c25-10.5,45.3-29.9,57-54.2c6.9-14.5,10.8-30.7,10.8-47.8C312.5,174.5,282.5,134,240.5,118.5z M201.5,272
	c-27.3,0-49.5-22.2-49.5-49.5c0-13.7,5.5-26,14.5-35s21.3-14.5,35-14.5c27.3,0,49.5,22.2,49.5,49.5S228.8,272,201.5,272z"/>
</svg>
