
<svg xmlns="http://www.w3.org/2000/svg" version="1.1" xmlns:xlink="http://www.w3.org/1999/xlink" preserveAspectRatio="none" x="0px" y="0px" width="640px" height="640px" viewBox="0 0 640 640">
<defs>
<linearGradient id="Gradient_1" gradientUnits="userSpaceOnUse" x1="-207.95000000000002" y1="20" x2="114.25000000000003" y2="20" spreadMethod="pad">
<stop  offset="0%" stop-color="#00EEFF"/>

<stop  offset="100%" stop-color="#0091FF"/>
</linearGradient>

<linearGradient id="Gradient_2" gradientUnits="userSpaceOnUse" x1="-225.45000000000002" y1="1" x2="147.45000000000002" y2="1" spreadMethod="pad">
<stop  offset="0%" stop-color="#00EEFF"/>

<stop  offset="100%" stop-color="#0091FF"/>
</linearGradient>

<linearGradient id="Gradient_3" gradientUnits="userSpaceOnUse" x1="-93.975" y1="24.95" x2="95.775" y2="24.95" spreadMethod="pad">
<stop  offset="0%" stop-color="#00EEFF"/>

<stop  offset="100%" stop-color="#0091FF"/>
</linearGradient>

<linearGradient id="Gradient_4" gradientUnits="userSpaceOnUse" x1="-110.05000000000001" y1="63.087500000000006" x2="32.35" y2="88.7125" spreadMethod="pad">
<stop  offset="0%" stop-color="#00E9FF"/>

<stop  offset="100%" stop-color="#009DFF"/>
</linearGradient>

<g id="Symbol_1_copy_0_Layer2_0_FILL">
<path fill="#000000" stroke="none" d="
M -174.25 -32.75
L -171.5 -29.9 -153.95 -39.3 -157.5 -59.1 -177.3 -61.7 -185.95 -43.7 -182.85 -40.5 -197.8 -26.45 -190.35 -18.7 -174.25 -32.75
M -171.95 -51.15
L -166.4 -50.45 -165.35 -44.9 -170.4 -42.2 -174.45 -46.1 -171.95 -51.15
M -166.4 -50.45
L -171.95 -51.15 -174.45 -46.1 -170.4 -42.2 -165.35 -44.9 -166.4 -50.45
M -171.55 -50.25
L -167.15 -49.65 -166.35 -45.3 -170.3 -43.25 -173.45 -46.25 -171.55 -50.25 Z"/>
</g>

<g id="Symbol_1_copy_0_Layer1_0_FILL">
<path fill="#333333" stroke="none" d="
M -106.45 46.7
L -92.3 8.4 -112.45 -28.8 -160.35 1.3 -173 56.55 -142.9 104.4 -87.75 117 -71.85 85.5 -97.55 71.35 -106.45 46.7 Z"/>

<path fill="#000000" stroke="none" d="
M -57.25 -16.1
L -112.45 -28.8 -92.3 8.4 -106.45 46.7 -97.55 71.35 -71.85 85.5 -87.75 117 -39.8 86.95 -27.15 31.75 -57.25 -16.1 Z"/>
</g>

<g id="Symbol_1_copy_0_Layer0_0_FILL">
<path fill="#333333" stroke="none" d="
M -29.9 -72.9
L -57.15 -42.5 -49.8 10.5 -4.7 33.55 18.35 58.75 3.85 103.65 64.05 81.6 99.75 28.4 97.4 -35.65 60.85 -35.65 27.8 -65.05 -29.9 -72.9 Z"/>

<path fill="#000000" stroke="none" d="
M -57.15 -42.5
L -29.9 -72.9 27.8 -65.05 60.85 -35.65 97.4 -35.65 57.85 -86.1 -3.8 -103.6 -64 -81.55 -99.7 -28.35 -97.35 35.7 -57.75 86.15 3.85 103.65 18.35 58.75 -4.7 33.55 -49.8 10.5 -57.15 -42.5 Z"/>
</g>

<g id="Symbol_2_copy_0_Layer2_0_FILL">
<path fill="#FFFFFF" stroke="none" d="
M -46.25 -45.8
L -49.9 -35.6 -45.05 -33.75 -59.35 5.5 -63.8 2.4 -67.45 12.4 -46.95 30.2 -42.65 18.4 -50.3 12.45 -46.5 2.25 -38.55 7.55
Q -30.203515625 13.11875 -20.75 11.55 -10.4828125 9.791796875 -5.5 -3.5 -1.1783203125 -15.5140625 -6.05 -25 -10.6208984375 -34.103515625 -22.55 -38.1
L -46.25 -45.8
M -21.15 -11
Q -23.0560546875 -5.8671875 -26.75 -3.8 -30.4060546875 -2.176953125 -36.45 -5.5
L -42.4 -9.15 -34.95 -29.4 -28.4 -26.75
Q -22.334765625 -24.2880859375 -20.7 -20.25 -19.210546875 -16.2587890625 -21.15 -11
M -82.6 -9.75
Q -85.15 -12.15 -85.1 -15.25 -85.3 -18.55 -84.35 -21.05
L -89.4 -22.15
Q -91.55 -16.4 -90.75 -10.9 -90.15 -5.4 -85.7 -1 -81.4 3.5 -76.25 3 -71.15 2.45 -67.8 -6.05 -66.05 -11.35 -66.4 -16.35 -66.85 -21.45 -70.1 -24.85
L -70 -25.2
Q -66.1 -25.3 -63.4 -27.55 -60.9 -30.05 -59.3 -34.2 -56.75 -41.3 -58.95 -46.25 -61.25 -51 -65.9 -52.95 -67.5 -53.7 -70.3 -54.05 -73.2 -54.75 -76.25 -53.9
L -81.15 -43.45 -77.1 -40.2 -74.45 -45.2
Q -73.5 -45.65 -72.2 -45.15 -70.85 -44.9 -70 -44.4 -65.85 -42.3 -67.9 -36.55 -68.4 -35.45 -69.4 -33.85 -70.5 -32.4 -72.3 -31.75 -74.05 -31.35 -76.75 -32.95
L -79.1 -26.25
Q -76.1 -23.9 -74.7 -20.7 -73.45 -17.75 -74.9 -13.45 -76.05 -10.5 -78.05 -9 -80.1 -7.65 -82.6 -9.75
M 20.2 -18.95
Q 7.6623046875 -16.85703125 2.65 -3.05 -0.744140625 5.6126953125 1.85 12.3 4.2390625 19.1859375 10.1 25.25 16.4125 31.7314453125 23.55 37.35 32.180859375 44.5865234375 38.45 52.05 45.08046875 60.078125 41.85 68.65 38.7005859375 76.655859375 31.7 73.9 24.8193359375 71.3384765625 16 64.55 13.2103515625 62.2458984375 9.9 59.2 6.310546875 55.819140625 2.65 49.85
L 6.7 39.3 -6.9 28.3 -16.7 46.85
Q -14.015234375 54.8271484375 -6.55 63.95 1.516015625 73.804296875 11.35 82.65 31.851171875 100.6646484375 49.15 103.7 68.6755859375 107.159375 75.55 88.9 81.559765625 73.603515625 73.55 60.2 66.529296875 47.570703125 55.7 38.85 45.472265625 30.4927734375 38.45 25.4 31.1048828125 19.74375 26.4 14.75 21.7802734375 9.68203125 23.9 4.1 25.6736328125 -0.9703125 30.7 -0.95 35.9076171875 -1.2669921875 43.15 2 47.7740234375 3.601171875 52.2 6.75 57.0015625 9.7365234375 61.3 14.75
L 58.7 28.15 84.8 38.75 92.75 12.85
Q 86.6720703125 3.770703125 74.05 -4.35 62.24453125 -11.8744140625 49.55 -15.75 33.880859375 -21.1248046875 20.2 -18.95 Z"/>
</g>

<g id="Symbol_2_copy_0_Layer1_0_FILL">
<path fill="#00C4FF" stroke="none" d="
M -41.7 76.55
Q -41.9 76.6 -42.05 76.85
L -42.4 77.55
Q -42.55 77.8 -42.6 77.85
L -42.6 78.05 -42.7 78.1 -42.75 78.45 -42.8 78.55 -42.8 78.8
Q -42.9 79.2 -42.8 79.5
L -42.7 79.7 -42.45 80 -42.55 80.05
Q -42.55 80.3 -42.7 80.35
L -42.75 80.8 -42.7 81.1
Q -42.5 81.85 -42.2 82.3 -41.85 82.65 -41.35 82.9 -40.85 83.05 -40.75 83
L -40.35 82.9 -40 82.65 -39.8 82.45 -39.7 82.25 -39.45 81.15
Q -39.55 81 -39.45 80.9
L -39.55 80.65 -39.5 80.55 -39.55 80.25 -39.55 80.15
Q -39.45 79.95 -39.6 79.8 -39.5 79.6 -39.65 79.45 -39.55 79.4 -39.65 79.3
L -39.75 78.6
Q -39.65 78.4 -39.75 78.15
L -39.85 77.5 -39.9 77.3
Q -40.05 77.15 -39.9 77.15
L -40.15 76.9 -40.15 76.75
Q -41 76.2 -41.7 76.55 Z"/>

<path fill="#00C1FF" stroke="none" d="
M -32.9 66
Q -34.05 65.05 -34.8 65.1 -35.35 65.1 -35.9 65.55 -36.3708984375 65.912109375 -36.6 66.35
L -36.6 66.35 -36.65 66.45
Q -36.6708984375 66.5740234375 -36.7 66.7 -36.7158203125 66.76328125 -36.75 66.8
L -36.75 66.85
Q -36.85 67.2 -36.7 67.45 -36.6 67.8 -36.4 67.95
L -36.05 68.3
Q -35.3 69.05 -34.4 68.95 -33.35 68.85 -32.95 68
L -32.75 67.4
Q -32.65 66.7 -32.9 66 Z"/>

<path fill="#00E4FF" stroke="none" d="
M -90.95 11.6
Q -91.1 11.7 -91.1 11.8
L -91.15 11.8
Q -91.2 12 -91.4 12.1
L -91.45 12.35
Q -91.6 12.35 -91.6 12.5
L -91.65 12.5 -91.65 12.55
Q -91.8 12.55 -91.8 12.75
L -91.9 13.1 -91.85 13.35 -91.9 13.5 -91.7 13.9 -91.3 14.25
Q -91.2 14.4 -91.05 14.4
L -90.7 14.45 -90.55 14.5 -90.35 14.4 -90.25 14.4 -90.15 14.3 -90 14.3 -89.95 14.2 -89.8 14.1 -89.5 13.8
Q -89.35 13.55 -89.3 13.55
L -89.3 13.45 -89.25 13.45 -89.2 13.3 -89.1 13.1 -89 13 -89 12.85 -88.9 12.6 -88.9 12.45 -88.95 12.35 -88.9 12.25 -89.05 12 -89 11.95 -89.3 11.55
Q -89.55 11.3 -90.1 11.2
L -90.25 11.25
Q -90.3 11.2 -90.4 11.25 -90.65 11.3 -90.95 11.6 Z"/>

<path fill="#00DDFF" stroke="none" d="
M -79.5 21.35
Q -79.7 21.35 -79.95 21.5
L -80.35 21.75 -80.55 22.25
Q -80.7 22.4 -80.65 22.45
L -80.75 22.5
Q -80.75 22.75 -81 23
L -81.1 23.2
Q -81.25 23.3 -81.25 23.4 -81.3 23.6 -81.55 23.75
L -81.6 24 -81.7 24.05 -81.7 24.15 -81.75 24.25 -81.75 24.55
Q -81.8 24.7 -81.7 24.8 -81.85 24.8 -81.7 24.95 -81.6 25.05 -81.65 25.1
L -81.55 25.2
Q -81.05 25.95 -80.15 25.7 -79.85 25.6 -79.45 25.2
L -79.4 25 -79.3 24.95 -79.25 24.7 -79.15 24.7 -79.1 24.5
Q -78.8 24.25 -78.55 23.75
L -78.35 23.3
Q -78.15 23.2 -78.25 23
L -78.15 22.95 -78.2 22.7 -78.15 22.5 -78.2 22.45 -78.15 22.35
Q -78.25 22.3 -78.25 22.05
L -78.4 21.75 -78.55 21.65
Q -78.95 21.25 -79.5 21.35 Z"/>
</g>

<g id="Symbol_2_copy_0_Layer0_0_FILL">
<path fill="#FFFFFF" stroke="none" d="
M -76.85 14.55
L -79.45 20.85 -77.5 22.55 -82.6 29 -81.45 18.7 -80.5 19.75 -78.05 13.55 -86.75 5.7 -89.1 11.55 -88 12.5 -93.05 17.75 -91.5 9 -90.45 10.1 -88.15 4.35 -95.7 -2.45 -97.75 3.05 -96.25 4.45 -99.2 26.85 -96.05 30.65 -87.45 21.2 -89.3 38.7 -85.6 43.1 -71.7 28.4 -69.55 30.4 -66.75 23.55 -76.85 14.55
M -48.45 50.75
L -45.3 53.85 -52.65 70.8 -55.6 67.45 -58.95 74.8 -44.85 91.65 -41.2 83.6 -44.1 80.45 -41.65 75.35 -39.7 77.45 -37.8 87.35 -39.6 85.35 -43.2 93.45 -24.25 115.95 -20.35 107.05 -25.25 101.55 -29.55 81.4 -17.55 80.65 -11.75 86.35 -7.6 77 -27.75 58.85 -31.45 67.2 -29.55 68.95 -35.9 69.9 -38.25 67.45 -36 62.7 -33 65.7 -29.2 57.45 -45.2 43.1 -48.45 50.75
M -66.05 33.75
L -63.4 36.35 -69.9 51.5 -72.45 48.8 -75.1 55.55 -63.2 69.6 -60.15 62.35 -62.95 59.35 -56.05 43.25 -53.2 46.15 -50 38.6 -63.15 26.95 -66.05 33.75
M 5.4 135.45
L 16 113.05 22.3 119.05 27.25 108.55 -0.05 83.85 -4.4 93.3 0.8 98.2 -8.9 119.55 -13.95 114 -18.25 123.3 6.25 152.25 11.05 141.9 5.4 135.45 Z"/>
</g>

<path id="Symbol_1_copy_0_Layer2_0_1_STROKES" stroke="#00DFFF" stroke-width="5" stroke-linejoin="miter" stroke-linecap="round" stroke-miterlimit="3" fill="none" d="
M -170.4 -42.2
L -174.45 -46.1 -171.95 -51.15 -166.4 -50.45 -165.35 -44.9 -170.4 -42.2 Z
M -171.5 -29.9
L -174.25 -32.75 -190.35 -18.7 -197.8 -26.45 -182.85 -40.5 -185.95 -43.7 -177.3 -61.7 -157.5 -59.1 -153.95 -39.3 -171.5 -29.9 Z"/>

<path id="Symbol_1_copy_0_Layer1_0_1_STROKES" stroke="url(#Gradient_1)" stroke-width="10" stroke-linejoin="miter" stroke-linecap="round" stroke-miterlimit="3" fill="none" d="
M -112.45 -28.8
L -57.25 -16.1 -27.15 31.75 -39.8 86.95 -87.75 117 -142.9 104.4 -173 56.55 -160.35 1.3 -112.45 -28.8 Z"/>

<path id="Symbol_1_copy_0_Layer0_0_1_STROKES" stroke="url(#Gradient_2)" stroke-width="10" stroke-linejoin="miter" stroke-linecap="round" stroke-miterlimit="3" fill="none" d="
M 97.4 -35.65
L 57.85 -86.1 -3.8 -103.6 -64 -81.55 -99.7 -28.35 -97.35 35.7 -57.75 86.15 3.85 103.65 64.05 81.6 99.75 28.4 97.4 -35.65 Z"/>

<path id="Symbol_2_copy_0_Layer2_0_1_STROKES" stroke="url(#Gradient_3)" stroke-width="4" stroke-linejoin="miter" stroke-linecap="round" stroke-miterlimit="3" fill="none" d="
M -76.25 -53.9
Q -73.2 -54.75 -70.3 -54.05 -67.5 -53.7 -65.9 -52.95 -61.25 -51 -58.95 -46.25 -56.75 -41.3 -59.3 -34.2 -60.9 -30.05 -63.4 -27.55 -66.1 -25.3 -70 -25.2
L -70.1 -24.85
Q -66.85 -21.45 -66.4 -16.35 -66.05 -11.35 -67.8 -6.05 -71.15 2.45 -76.25 3 -81.4 3.5 -85.7 -1 -90.15 -5.4 -90.75 -10.9 -91.55 -16.4 -89.4 -22.15
L -84.35 -21.05
Q -85.3 -18.55 -85.1 -15.25 -85.15 -12.15 -82.6 -9.75 -80.1 -7.65 -78.05 -9 -76.05 -10.5 -74.9 -13.45 -73.45 -17.75 -74.7 -20.7 -76.1 -23.9 -79.1 -26.25
L -76.75 -32.95
Q -74.05 -31.35 -72.3 -31.75 -70.5 -32.4 -69.4 -33.85 -68.4 -35.45 -67.9 -36.55 -65.85 -42.3 -70 -44.4 -70.85 -44.9 -72.2 -45.15 -73.5 -45.65 -74.45 -45.2
L -77.1 -40.2 -81.15 -43.45 -76.25 -53.9 Z"/>

<path id="Symbol_2_copy_0_Layer2_0_2_STROKES" stroke="url(#Gradient_3)" stroke-width="5" stroke-linejoin="miter" stroke-linecap="round" stroke-miterlimit="3" fill="none" d="
M -5.5 -3.475
Q -10.4828125 9.791796875 -20.725 11.575 -30.203515625 13.11875 -38.525 7.55
L -46.475 2.25 -50.3 12.475 -42.65 18.425 -46.95 30.225 -67.425 12.425 -63.775 2.4 -59.35 5.5 -45.05 -33.75 -49.9 -35.575 -46.225 -45.8 -22.525 -38.075
Q -10.6208984375 -34.103515625 -6.025 -24.975 -1.1783203125 -15.5140625 -5.5 -3.475 Z"/>

<path id="Symbol_2_copy_0_Layer2_0_3_STROKES" stroke="url(#Gradient_3)" stroke-width="6" stroke-linejoin="miter" stroke-linecap="round" stroke-miterlimit="3" fill="none" d="
M 75.575 88.925
Q 68.6755859375 107.159375 49.175 103.725 31.851171875 100.6646484375 11.375 82.65 1.516015625 73.804296875 -6.55 63.975 -14.015234375 54.8271484375 -16.7 46.875
L -6.9 28.325 6.7 39.3 2.65 49.85
Q 6.310546875 55.819140625 9.925 59.2 13.2103515625 62.2458984375 16.025 64.575 24.8193359375 71.3384765625 31.7 73.925 38.7005859375 76.655859375 41.875 68.675 45.08046875 60.078125 38.45 52.05 32.180859375 44.5865234375 23.55 37.375 16.4125 31.7314453125 10.1 25.275 4.2390625 19.1859375 1.85 12.325 -0.744140625 5.6126953125 2.65 -3.05 7.6623046875 -16.85703125 20.2 -18.925 33.880859375 -21.1248046875 49.575 -15.75 62.24453125 -11.8744140625 74.05 -4.325 86.6720703125 3.770703125 92.775 12.875
L 84.8 38.775 58.725 28.15 61.325 14.775
Q 57.0015625 9.7365234375 52.225 6.75 47.7740234375 3.601171875 43.15 2.025 35.9076171875 -1.2669921875 30.7 -0.925 25.6736328125 -0.9703125 23.925 4.1 21.7802734375 9.68203125 26.425 14.775 31.1048828125 19.74375 38.475 25.4 45.472265625 30.4927734375 55.725 38.875 66.529296875 47.570703125 73.575 60.2 81.559765625 73.603515625 75.575 88.925 Z
M -21.125 -11
Q -19.210546875 -16.2587890625 -20.7 -20.25 -22.334765625 -24.2880859375 -28.4 -26.725
L -34.95 -29.4 -42.4 -9.125 -36.425 -5.475
Q -30.4060546875 -2.176953125 -26.725 -3.8 -23.0560546875 -5.8671875 -21.125 -11 Z"/>

<path id="Symbol_2_copy_0_Layer0_0_1_STROKES" stroke="url(#Gradient_4)" stroke-width="3" stroke-linejoin="miter" stroke-linecap="round" stroke-miterlimit="3" fill="none" d="
M -18.25 123.3
L 6.25 152.25 11.05 141.9 5.4 135.45 16 113.05 22.3 119.05 27.25 108.55 -0.05 83.85 -4.4 93.3 0.8 98.2 -8.9 119.55 -13.95 114 -18.25 123.3 Z
M -85.6 43.1
L -71.7 28.4 -69.55 30.4 -66.75 23.55 -76.85 14.55 -79.45 20.85 -77.5 22.55 -82.6 29 -81.45 18.7 -80.5 19.75 -78.05 13.55 -86.75 5.7 -89.1 11.55 -88 12.5 -93.05 17.75 -91.5 9 -90.45 10.1 -88.15 4.35 -95.7 -2.45 -97.75 3.05 -96.25 4.45 -99.2 26.85 -96.05 30.65 -87.45 21.2 -89.3 38.7 -85.6 43.1 Z
M -75.1 55.55
L -63.2 69.6 -60.15 62.35 -62.95 59.35 -56.05 43.25 -53.2 46.15 -50 38.6 -63.15 26.95 -66.05 33.75 -63.4 36.35 -69.9 51.5 -72.45 48.8 -75.1 55.55 Z
M -43.2 93.45
L -24.25 115.95 -20.35 107.05 -25.25 101.55 -29.55 81.4 -17.55 80.65 -11.75 86.35 -7.6 77 -27.75 58.85 -31.45 67.2 -29.55 68.95 -35.9 69.9 -38.25 67.45 -36 62.7 -33 65.7 -29.2 57.45 -45.2 43.1 -48.45 50.75 -45.3 53.85 -52.65 70.8 -55.6 67.45 -58.95 74.8 -44.85 91.65 -41.2 83.6 -44.1 80.45 -41.65 75.35 -39.7 77.45 -37.8 87.35 -39.6 85.35 -43.2 93.45 Z"/>
</defs>

<g transform="matrix( 1.61773681640625, 0, 0, 1.61773681640625, 319.55,271) ">
<g transform="matrix( 1, 0, 0, 1, 41.55,-9.25) ">
<g transform="matrix( 1, 0, 0, 1, 0,0) ">
<use xlink:href="#Symbol_1_copy_0_Layer2_0_FILL"/>

<use xlink:href="#Symbol_1_copy_0_Layer2_0_1_STROKES"/>
</g>

<g transform="matrix( 1, 0, 0, 1, 0,0) ">
<use xlink:href="#Symbol_1_copy_0_Layer1_0_FILL"/>

<use xlink:href="#Symbol_1_copy_0_Layer1_0_1_STROKES"/>
</g>

<g transform="matrix( 1, 0, 0, 1, 0,0) ">
<use xlink:href="#Symbol_1_copy_0_Layer0_0_FILL"/>

<use xlink:href="#Symbol_1_copy_0_Layer0_0_1_STROKES"/>
</g>
</g>

<g transform="matrix( 1.2157135009765625, -0.22442626953125, 0.22442626953125, 1.2157135009765625, 7.6,-30.15) ">
<g transform="matrix( 1, 0, 0, 1, 0,0) ">
<use xlink:href="#Symbol_2_copy_0_Layer2_0_FILL"/>

<use xlink:href="#Symbol_2_copy_0_Layer2_0_1_STROKES"/>

<use xlink:href="#Symbol_2_copy_0_Layer2_0_2_STROKES"/>

<use xlink:href="#Symbol_2_copy_0_Layer2_0_3_STROKES"/>
</g>

<g transform="matrix( 1, 0, 0, 1, 0,0) ">
<use xlink:href="#Symbol_2_copy_0_Layer1_0_FILL"/>
</g>

<g transform="matrix( 1, 0, 0, 1, 0,0) ">
<use xlink:href="#Symbol_2_copy_0_Layer0_0_FILL"/>

<use xlink:href="#Symbol_2_copy_0_Layer0_0_1_STROKES"/>
</g>
</g>
</g>
</svg>
