<?xml version="1.0" encoding="UTF-8" standalone="no"?><!DOCTYPE svg PUBLIC "-//W3C//DTD SVG 1.1//EN" "http://www.w3.org/Graphics/SVG/1.1/DTD/svg11.dtd"><svg width="100%" height="100%" viewBox="0 0 400 400" version="1.1" xmlns="http://www.w3.org/2000/svg" xmlns:xlink="http://www.w3.org/1999/xlink" xml:space="preserve" xmlns:serif="http://www.serif.com/" style="fill-rule:evenodd;clip-rule:evenodd;stroke-linejoin:round;stroke-miterlimit:2;"><g id="ASYLUM" transform="matrix(2.739468,0,0,2.630094,105.912128,344.085163)"><path d="M81.726,0L93.811,0L48.279,-99.915L47.058,-99.915L1.587,0L13.611,0L20.813,-16.174L74.524,-16.174L81.726,0ZM25.146,-25.818L47.729,-76.416L70.251,-25.818L25.146,-25.818Z" style="fill:rgb(128,181,239);fill-rule:nonzero;"/></g><g id="I" transform="matrix(2.251571,0,-0,3.797317,51.897009,383.653933)"><rect x="10.376" y="-98.389" width="11.108" height="98.389" style="fill:rgb(255,241,134);fill-rule:nonzero;"/></g><g id="Rectangle-1" serif:id="Rectangle 1" transform="matrix(0.511657,-0,-0,1.771459,1.477169,-14.191202)"><rect x="7.5" y="10.238" width="761" height="14" style="fill:rgb(255,241,133);"/></g><g id="Rectangle-11" serif:id="Rectangle 1" transform="matrix(0.303899,-0,-0,1.771459,3.035351,353.116663)"><rect x="7.5" y="10.238" width="761" height="14" style="fill:rgb(255,241,133);"/></g><g id="WIKI" transform="matrix(0.45158,0,0,0.447772,247.535886,395.780849)"><path d="M32.104,0.61L33.752,0.61L59.204,-64.636L84.778,0.61L86.487,0.61L117.004,-98.389L105.042,-98.389L83.679,-26.55L59.753,-90.393L58.899,-90.393L34.851,-26.55L13.489,-98.389L1.587,-98.389L32.104,0.61Z" style="fill:white;fill-rule:nonzero;"/><rect x="153.906" y="-98.389" width="11.108" height="98.389" style="fill:white;fill-rule:nonzero;"/><path d="M210.767,0L221.875,0L221.875,-98.389L210.767,-98.389L210.767,0ZM264.661,0L278.333,0L236.584,-49.988L274.854,-98.389L261.792,-98.389L223.34,-49.5L264.661,0Z" style="fill:white;fill-rule:nonzero;"/><rect x="314.746" y="-98.389" width="11.108" height="98.389" style="fill:white;fill-rule:nonzero;"/></g></svg>